<svg width="51" height="51" viewBox="0 0 51 51" fill="none" xmlns="http://www.w3.org/2000/svg">
<path d="M36.7388 9.32947C36.3169 9.46228 35.856 9.47009 35.4731 9.25916C35.02 9.00916 34.5513 8.77478 34.0825 8.56384C33.27 8.19666 33.0122 7.13416 33.7622 6.64197C34.9341 5.86853 36.3403 5.41541 37.8481 5.41541C41.9575 5.41541 45.2856 8.74353 45.2856 12.8529C45.2856 13.8842 45.0747 14.8685 44.6919 15.767C44.3403 16.5873 43.2544 16.5326 42.7466 15.7982C42.4497 15.3685 42.1372 14.9545 41.8091 14.5482C41.5356 14.2045 41.4575 13.7513 41.5122 13.3138C41.5278 13.1654 41.5435 13.0092 41.5435 12.8529C41.5435 10.8138 39.8872 9.16541 37.856 9.16541C37.4731 9.16541 37.0981 9.22791 36.7466 9.33728L36.7388 9.32947ZM7.82471 15.7904C7.31689 16.5248 6.22314 16.5795 5.87939 15.7592C5.49658 14.8607 5.28564 13.8763 5.28564 12.8451C5.28564 8.73572 8.61377 5.40759 12.7231 5.40759C14.231 5.40759 15.6372 5.86072 16.8091 6.63416C17.5591 7.12634 17.3013 8.18884 16.4888 8.55603C16.0122 8.77478 15.5513 9.00134 15.0981 9.25134C14.7153 9.46228 14.2466 9.45447 13.8325 9.32166C13.481 9.21228 13.1138 9.14978 12.7231 9.14978C10.6841 9.14978 9.03564 10.806 9.03564 12.8373C9.03564 12.9935 9.04346 13.1498 9.06689 13.2982C9.12158 13.7357 9.04346 14.1888 8.77002 14.5326C8.44189 14.9388 8.12939 15.3529 7.83252 15.7826L7.82471 15.7904ZM39.0356 27.9076C39.0356 20.3138 32.8794 14.1576 25.2856 14.1576C17.6919 14.1576 11.5356 20.3138 11.5356 27.9076C11.5356 35.5013 17.6919 41.6576 25.2856 41.6576C32.8794 41.6576 39.0356 35.5013 39.0356 27.9076ZM36.2622 41.5404C33.2622 43.9545 29.4419 45.4076 25.2856 45.4076C21.1294 45.4076 17.3091 43.9545 14.3091 41.5404L10.9888 44.8607C10.2544 45.5951 9.06689 45.5951 8.34033 44.8607C7.61377 44.1263 7.60596 42.9388 8.34033 42.2123L11.6606 38.892C9.23877 35.8842 7.78564 32.0638 7.78564 27.9076C7.78564 18.2435 15.6216 10.4076 25.2856 10.4076C34.9497 10.4076 42.7856 18.2435 42.7856 27.9076C42.7856 32.0638 41.3325 35.8842 38.9185 38.8842L42.2388 42.2045C42.9731 42.9388 42.9731 44.1263 42.2388 44.8529C41.5044 45.5795 40.3169 45.5873 39.5903 44.8529L36.27 41.5326L36.2622 41.5404ZM27.1606 19.7826V27.1342L30.3638 30.3373C31.0981 31.0717 31.0981 32.2592 30.3638 32.9857C29.6294 33.7123 28.4419 33.7201 27.7153 32.9857L23.9653 29.2357C23.6138 28.8842 23.4185 28.4076 23.4185 27.9076V19.7826C23.4185 18.7435 24.2544 17.9076 25.2935 17.9076C26.3325 17.9076 27.1685 18.7435 27.1685 19.7826H27.1606Z" fill="white"/>
</svg>
