<svg width="100" height="101" viewBox="0 0 100 101" fill="none" xmlns="http://www.w3.org/2000/svg">
<path d="M13.0001 17.4075C15.7657 17.4075 18.0001 19.6418 18.0001 22.4075V57.4075H53.0001V37.4075C53.0001 34.6418 55.2344 32.4075 58.0001 32.4075H83.0001C91.2813 32.4075 98.0001 39.1262 98.0001 47.4075V82.4075C98.0001 85.1731 95.7657 87.4075 93.0001 87.4075C90.2344 87.4075 88.0001 85.1731 88.0001 82.4075V72.4075H18.0001V82.4075C18.0001 85.1731 15.7657 87.4075 13.0001 87.4075C10.2344 87.4075 8.00006 85.1731 8.00006 82.4075V22.4075C8.00006 19.6418 10.2344 17.4075 13.0001 17.4075ZM25.5001 42.4075C25.5001 36.8918 29.9844 32.4075 35.5001 32.4075C41.0157 32.4075 45.5001 36.8918 45.5001 42.4075C45.5001 47.9231 41.0157 52.4075 35.5001 52.4075C29.9844 52.4075 25.5001 47.9231 25.5001 42.4075Z" fill="white"/>
</svg>
