<svg width="520" height="484" viewBox="0 0 520 484" fill="none" xmlns="http://www.w3.org/2000/svg">
<rect x="0.5" y="0.5" width="466" height="453" rx="29.5" fill="#FFEED2" stroke="black"/>
<rect x="103.5" y="87.5" width="416" height="396" rx="29.5" fill="#FFF4E3" stroke="black"/>
<path d="M289.92 106.92C290.48 106.92 290.95 106.993 291.33 107.14C291.71 107.28 291.997 107.49 292.19 107.77C292.383 108.05 292.48 108.393 292.48 108.8C292.48 109.453 292.227 109.963 291.72 110.33C291.22 110.69 290.513 110.87 289.6 110.87C289.367 110.87 289.133 110.863 288.9 110.85C288.667 110.83 288.447 110.807 288.24 110.78V110.55C288.527 110.657 288.917 110.71 289.41 110.71C290.017 110.71 290.483 110.547 290.81 110.22C291.143 109.893 291.31 109.433 291.31 108.84C291.31 108.46 291.24 108.14 291.1 107.88C290.967 107.62 290.77 107.423 290.51 107.29C290.25 107.15 289.93 107.08 289.55 107.08C289.383 107.08 289.217 107.083 289.05 107.09C288.89 107.097 288.743 107.103 288.61 107.11C288.483 107.117 288.38 107.13 288.3 107.15V113.77L288.91 113.9V114H286.54V113.9L287.15 113.77V107.15L286.54 107.02V106.92H289.92ZM295.468 108.85C296.001 108.85 296.441 108.957 296.788 109.17C297.141 109.383 297.404 109.673 297.578 110.04C297.758 110.4 297.848 110.813 297.848 111.28H293.898V111.18L296.828 111.07C296.828 110.63 296.778 110.257 296.678 109.95C296.578 109.637 296.428 109.397 296.228 109.23C296.028 109.063 295.774 108.98 295.468 108.98C295.154 108.98 294.881 109.07 294.648 109.25C294.414 109.43 294.234 109.7 294.108 110.06C293.981 110.42 293.918 110.867 293.918 111.4C293.918 111.713 293.961 112.013 294.048 112.3C294.134 112.58 294.258 112.833 294.418 113.06C294.578 113.28 294.774 113.453 295.008 113.58C295.241 113.707 295.508 113.77 295.808 113.77C296.008 113.77 296.204 113.743 296.398 113.69C296.591 113.637 296.771 113.56 296.938 113.46C297.104 113.353 297.254 113.227 297.388 113.08C297.528 112.927 297.648 112.75 297.748 112.55L297.848 112.65C297.701 112.943 297.534 113.187 297.348 113.38C297.161 113.573 296.958 113.727 296.738 113.84C296.518 113.953 296.291 114.033 296.058 114.08C295.824 114.127 295.588 114.15 295.348 114.15C294.948 114.15 294.591 114.08 294.278 113.94C293.964 113.8 293.698 113.613 293.478 113.38C293.258 113.14 293.088 112.863 292.968 112.55C292.854 112.237 292.798 111.903 292.798 111.55C292.798 111.143 292.864 110.777 292.998 110.45C293.131 110.117 293.314 109.83 293.548 109.59C293.788 109.35 294.071 109.167 294.398 109.04C294.724 108.913 295.081 108.85 295.468 108.85ZM298.823 114V113.9L299.373 113.78V109.3H298.763V109.19L300.473 108.85V110.44L300.553 110.52C300.653 110.293 300.75 110.09 300.843 109.91C300.936 109.73 301.03 109.58 301.123 109.46C301.29 109.247 301.463 109.093 301.643 109C301.83 108.9 302.033 108.85 302.253 108.85C302.406 108.85 302.546 108.88 302.673 108.94C302.806 109 302.913 109.09 302.993 109.21C303.08 109.323 303.123 109.47 303.123 109.65C303.123 109.783 303.086 109.907 303.013 110.02C302.946 110.133 302.85 110.227 302.723 110.3C302.596 110.367 302.443 110.4 302.263 110.4C302.103 110.4 301.96 110.373 301.833 110.32C301.706 110.26 301.606 110.18 301.533 110.08C301.466 109.98 301.433 109.87 301.433 109.75C301.433 109.697 301.436 109.653 301.443 109.62C301.456 109.58 301.466 109.543 301.473 109.51C301.48 109.47 301.483 109.44 301.483 109.42C301.483 109.373 301.466 109.35 301.433 109.35C301.366 109.35 301.286 109.41 301.193 109.53C301.106 109.643 301.006 109.813 300.893 110.04C300.82 110.173 300.746 110.333 300.673 110.52C300.6 110.707 300.533 110.9 300.473 111.1V113.78L301.033 113.9V114H298.823ZM305.681 114.15C305.381 114.15 305.097 114.123 304.831 114.07C304.571 114.017 304.337 113.937 304.131 113.83C303.931 113.723 303.774 113.597 303.661 113.45C303.547 113.303 303.491 113.14 303.491 112.96C303.491 112.827 303.527 112.717 303.601 112.63C303.681 112.537 303.781 112.467 303.901 112.42C304.021 112.373 304.147 112.35 304.281 112.35C304.414 112.35 304.541 112.373 304.661 112.42C304.781 112.46 304.877 112.52 304.951 112.6C305.024 112.68 305.061 112.777 305.061 112.89C305.061 112.983 305.037 113.067 304.991 113.14C304.951 113.213 304.887 113.283 304.801 113.35C304.694 113.423 304.621 113.483 304.581 113.53C304.541 113.577 304.521 113.627 304.521 113.68C304.521 113.733 304.567 113.787 304.661 113.84C304.754 113.893 304.884 113.94 305.051 113.98C305.224 114.013 305.417 114.03 305.631 114.03C305.931 114.03 306.194 113.993 306.421 113.92C306.647 113.84 306.824 113.727 306.951 113.58C307.084 113.433 307.151 113.247 307.151 113.02C307.151 112.847 307.097 112.69 306.991 112.55C306.884 112.41 306.707 112.277 306.461 112.15C306.214 112.023 305.877 111.893 305.451 111.76C304.977 111.6 304.601 111.44 304.321 111.28C304.047 111.12 303.851 110.95 303.731 110.77C303.617 110.59 303.561 110.393 303.561 110.18C303.561 109.773 303.761 109.45 304.161 109.21C304.567 108.97 305.114 108.85 305.801 108.85C306.174 108.85 306.517 108.9 306.831 109C307.144 109.1 307.397 109.24 307.591 109.42C307.784 109.593 307.881 109.8 307.881 110.04C307.881 110.167 307.844 110.273 307.771 110.36C307.697 110.44 307.601 110.5 307.481 110.54C307.367 110.58 307.247 110.6 307.121 110.6C307.021 110.6 306.921 110.59 306.821 110.57C306.727 110.543 306.641 110.51 306.561 110.47C306.487 110.423 306.427 110.367 306.381 110.3C306.334 110.227 306.311 110.143 306.311 110.05C306.311 109.87 306.411 109.713 306.611 109.58C306.717 109.513 306.791 109.457 306.831 109.41C306.871 109.363 306.891 109.32 306.891 109.28C306.891 109.247 306.864 109.21 306.811 109.17C306.757 109.13 306.681 109.097 306.581 109.07C306.487 109.037 306.381 109.013 306.261 109C306.141 108.98 306.011 108.97 305.871 108.97C305.571 108.97 305.304 109.003 305.071 109.07C304.837 109.137 304.654 109.237 304.521 109.37C304.387 109.497 304.321 109.653 304.321 109.84C304.321 110.007 304.384 110.167 304.511 110.32C304.637 110.467 304.824 110.603 305.071 110.73C305.317 110.85 305.621 110.97 305.981 111.09C306.481 111.263 306.874 111.427 307.161 111.58C307.454 111.733 307.664 111.893 307.791 112.06C307.917 112.22 307.981 112.407 307.981 112.62C307.981 112.867 307.921 113.087 307.801 113.28C307.681 113.473 307.517 113.633 307.311 113.76C307.104 113.887 306.861 113.983 306.581 114.05C306.307 114.117 306.007 114.15 305.681 114.15ZM306.041 116.15C305.801 116.15 305.591 116.093 305.411 115.98C305.237 115.873 305.114 115.713 305.041 115.5L305.141 115.4C305.207 115.553 305.304 115.67 305.431 115.75C305.557 115.83 305.701 115.87 305.861 115.87C305.987 115.87 306.097 115.84 306.191 115.78C306.284 115.727 306.354 115.65 306.401 115.55C306.454 115.457 306.481 115.35 306.481 115.23C306.481 115.13 306.461 115.033 306.421 114.94C306.381 114.853 306.321 114.773 306.241 114.7C306.167 114.627 306.071 114.567 305.951 114.52C305.831 114.48 305.694 114.46 305.541 114.46L305.721 114H305.851L305.771 114.24L305.851 114.35C306.091 114.37 306.291 114.423 306.451 114.51C306.611 114.603 306.731 114.713 306.811 114.84C306.891 114.973 306.931 115.12 306.931 115.28C306.931 115.433 306.894 115.577 306.821 115.71C306.747 115.843 306.644 115.95 306.511 116.03C306.377 116.11 306.221 116.15 306.041 116.15ZM311.542 108.85C312.075 108.85 312.515 108.957 312.862 109.17C313.215 109.383 313.479 109.673 313.652 110.04C313.832 110.4 313.922 110.813 313.922 111.28H309.972V111.18L312.902 111.07C312.902 110.63 312.852 110.257 312.752 109.95C312.652 109.637 312.502 109.397 312.302 109.23C312.102 109.063 311.849 108.98 311.542 108.98C311.229 108.98 310.955 109.07 310.722 109.25C310.489 109.43 310.309 109.7 310.182 110.06C310.055 110.42 309.992 110.867 309.992 111.4C309.992 111.713 310.035 112.013 310.122 112.3C310.209 112.58 310.332 112.833 310.492 113.06C310.652 113.28 310.849 113.453 311.082 113.58C311.315 113.707 311.582 113.77 311.882 113.77C312.082 113.77 312.279 113.743 312.472 113.69C312.665 113.637 312.845 113.56 313.012 113.46C313.179 113.353 313.329 113.227 313.462 113.08C313.602 112.927 313.722 112.75 313.822 112.55L313.922 112.65C313.775 112.943 313.609 113.187 313.422 113.38C313.235 113.573 313.032 113.727 312.812 113.84C312.592 113.953 312.365 114.033 312.132 114.08C311.899 114.127 311.662 114.15 311.422 114.15C311.022 114.15 310.665 114.08 310.352 113.94C310.039 113.8 309.772 113.613 309.552 113.38C309.332 113.14 309.162 112.863 309.042 112.55C308.929 112.237 308.872 111.903 308.872 111.55C308.872 111.143 308.939 110.777 309.072 110.45C309.205 110.117 309.389 109.83 309.622 109.59C309.862 109.35 310.145 109.167 310.472 109.04C310.799 108.913 311.155 108.85 311.542 108.85ZM314.897 114V113.9L315.447 113.78V109.37H314.837V109.26L316.547 108.92V110.49L316.627 110.56C316.781 110.233 316.964 109.94 317.177 109.68C317.391 109.42 317.627 109.217 317.887 109.07C318.154 108.923 318.437 108.85 318.737 108.85C318.977 108.85 319.187 108.887 319.367 108.96C319.547 109.033 319.697 109.143 319.817 109.29C319.937 109.43 320.024 109.607 320.077 109.82C320.137 110.033 320.167 110.28 320.167 110.56V113.78L320.737 113.9V114H318.497V113.9L319.067 113.78V110.46C319.067 110.06 318.997 109.76 318.857 109.56C318.724 109.36 318.521 109.26 318.247 109.26C318.087 109.26 317.924 109.317 317.757 109.43C317.597 109.537 317.441 109.68 317.287 109.86C317.134 110.04 316.994 110.233 316.867 110.44C316.747 110.647 316.641 110.847 316.547 111.04V113.78L317.117 113.9V114H314.897ZM322.117 114V113.9L322.687 113.78V110.46C322.687 110.06 322.617 109.76 322.477 109.56C322.337 109.36 322.134 109.26 321.867 109.26C321.701 109.26 321.534 109.317 321.367 109.43C321.207 109.537 321.051 109.68 320.897 109.86C320.751 110.04 320.614 110.233 320.487 110.44C320.361 110.647 320.254 110.847 320.167 111.04V110.49L320.247 110.56C320.401 110.233 320.581 109.94 320.787 109.68C321.001 109.42 321.241 109.217 321.507 109.07C321.774 108.923 322.054 108.85 322.347 108.85C322.614 108.85 322.837 108.893 323.017 108.98C323.204 109.06 323.351 109.177 323.457 109.33C323.571 109.483 323.654 109.667 323.707 109.88C323.761 110.093 323.787 110.337 323.787 110.61V113.78L324.397 113.9V114H322.117ZM325.672 114.15V107H325.062V106.89L326.772 106.55V110.42L326.852 110.5C326.945 110.28 327.052 110.073 327.172 109.88C327.299 109.68 327.445 109.503 327.612 109.35C327.779 109.197 327.962 109.077 328.162 108.99C328.369 108.897 328.592 108.85 328.832 108.85C329.145 108.85 329.419 108.913 329.652 109.04C329.892 109.167 330.089 109.343 330.242 109.57C330.402 109.797 330.519 110.063 330.592 110.37C330.672 110.67 330.712 111 330.712 111.36C330.712 111.84 330.649 112.257 330.522 112.61C330.395 112.957 330.215 113.247 329.982 113.48C329.755 113.707 329.489 113.877 329.182 113.99C328.882 114.097 328.555 114.15 328.202 114.15C327.982 114.15 327.772 114.123 327.572 114.07C327.379 114.017 327.199 113.943 327.032 113.85C326.872 113.757 326.722 113.647 326.582 113.52C326.449 113.393 326.332 113.253 326.232 113.1H326.132L325.772 114.15H325.672ZM328.162 114C328.469 114 328.729 113.897 328.942 113.69C329.155 113.477 329.315 113.183 329.422 112.81C329.535 112.437 329.592 112.003 329.592 111.51C329.592 111.023 329.545 110.617 329.452 110.29C329.365 109.963 329.229 109.717 329.042 109.55C328.862 109.383 328.635 109.3 328.362 109.3C328.155 109.3 327.949 109.377 327.742 109.53C327.535 109.677 327.349 109.883 327.182 110.15C327.015 110.417 326.879 110.73 326.772 111.09V112.25C326.772 112.557 326.815 112.823 326.902 113.05C326.995 113.27 327.112 113.45 327.252 113.59C327.392 113.73 327.542 113.833 327.702 113.9C327.869 113.967 328.022 114 328.162 114ZM334.286 108.85C334.819 108.85 335.259 108.957 335.606 109.17C335.959 109.383 336.223 109.673 336.396 110.04C336.576 110.4 336.666 110.813 336.666 111.28H332.716V111.18L335.646 111.07C335.646 110.63 335.596 110.257 335.496 109.95C335.396 109.637 335.246 109.397 335.046 109.23C334.846 109.063 334.593 108.98 334.286 108.98C333.973 108.98 333.699 109.07 333.466 109.25C333.233 109.43 333.053 109.7 332.926 110.06C332.799 110.42 332.736 110.867 332.736 111.4C332.736 111.713 332.779 112.013 332.866 112.3C332.953 112.58 333.076 112.833 333.236 113.06C333.396 113.28 333.593 113.453 333.826 113.58C334.059 113.707 334.326 113.77 334.626 113.77C334.826 113.77 335.023 113.743 335.216 113.69C335.409 113.637 335.589 113.56 335.756 113.46C335.923 113.353 336.073 113.227 336.206 113.08C336.346 112.927 336.466 112.75 336.566 112.55L336.666 112.65C336.519 112.943 336.353 113.187 336.166 113.38C335.979 113.573 335.776 113.727 335.556 113.84C335.336 113.953 335.109 114.033 334.876 114.08C334.643 114.127 334.406 114.15 334.166 114.15C333.766 114.15 333.409 114.08 333.096 113.94C332.783 113.8 332.516 113.613 332.296 113.38C332.076 113.14 331.906 112.863 331.786 112.55C331.673 112.237 331.616 111.903 331.616 111.55C331.616 111.143 331.683 110.777 331.816 110.45C331.949 110.117 332.133 109.83 332.366 109.59C332.606 109.35 332.889 109.167 333.216 109.04C333.543 108.913 333.899 108.85 334.286 108.85Z" fill="black"/>
<path d="M362.68 112.67C362.467 113.01 362.213 113.29 361.92 113.51C361.633 113.723 361.317 113.883 360.97 113.99C360.63 114.097 360.27 114.15 359.89 114.15C359.403 114.15 358.957 114.07 358.55 113.91C358.15 113.743 357.8 113.503 357.5 113.19C357.207 112.87 356.98 112.487 356.82 112.04C356.66 111.587 356.58 111.07 356.58 110.49C356.58 109.93 356.66 109.423 356.82 108.97C356.987 108.517 357.22 108.127 357.52 107.8C357.827 107.467 358.19 107.213 358.61 107.04C359.037 106.86 359.513 106.77 360.04 106.77C360.42 106.77 360.777 106.807 361.11 106.88C361.443 106.953 361.743 107.057 362.01 107.19C362.283 107.323 362.51 107.477 362.69 107.65L362.17 110.25H361.99L361.84 108.8C361.8 108.367 361.7 108.013 361.54 107.74C361.38 107.46 361.157 107.253 360.87 107.12C360.59 106.98 360.237 106.91 359.81 106.91C359.503 106.91 359.22 106.993 358.96 107.16C358.7 107.327 358.477 107.56 358.29 107.86C358.11 108.153 357.97 108.497 357.87 108.89C357.77 109.283 357.72 109.707 357.72 110.16C357.72 110.647 357.777 111.1 357.89 111.52C358.01 111.94 358.187 112.307 358.42 112.62C358.653 112.927 358.947 113.167 359.3 113.34C359.653 113.513 360.067 113.6 360.54 113.6C360.947 113.6 361.327 113.513 361.68 113.34C362.033 113.167 362.333 112.92 362.58 112.6L362.68 112.67ZM365.555 114.15C365.082 114.15 364.725 114.003 364.485 113.71C364.245 113.417 364.125 112.973 364.125 112.38V109.3H363.505V109.19L365.225 108.85V112.54C365.225 112.933 365.295 113.233 365.435 113.44C365.575 113.64 365.779 113.74 366.045 113.74C366.265 113.74 366.489 113.663 366.715 113.51C366.942 113.35 367.155 113.137 367.355 112.87C367.555 112.597 367.722 112.29 367.855 111.95V109.3H367.245V109.19L368.955 108.85V113.7H369.565V113.81L367.855 114.15V112.5L367.775 112.44C367.482 113.007 367.149 113.433 366.775 113.72C366.402 114.007 365.995 114.15 365.555 114.15ZM370.288 114V113.9L370.838 113.78V109.37H370.228V109.26L371.938 108.92V110.49L372.018 110.56C372.171 110.233 372.355 109.94 372.568 109.68C372.781 109.42 373.018 109.217 373.278 109.07C373.545 108.923 373.828 108.85 374.128 108.85C374.368 108.85 374.578 108.887 374.758 108.96C374.938 109.033 375.088 109.143 375.208 109.29C375.328 109.43 375.415 109.607 375.468 109.82C375.528 110.033 375.558 110.28 375.558 110.56V113.78L376.128 113.9V114H373.888V113.9L374.458 113.78V110.46C374.458 110.06 374.388 109.76 374.248 109.56C374.115 109.36 373.911 109.26 373.638 109.26C373.478 109.26 373.315 109.317 373.148 109.43C372.988 109.537 372.831 109.68 372.678 109.86C372.525 110.04 372.385 110.233 372.258 110.44C372.138 110.647 372.031 110.847 371.938 111.04V113.78L372.508 113.9V114H370.288ZM377.508 114V113.9L378.078 113.78V110.46C378.078 110.06 378.008 109.76 377.868 109.56C377.728 109.36 377.525 109.26 377.258 109.26C377.091 109.26 376.925 109.317 376.758 109.43C376.598 109.537 376.441 109.68 376.288 109.86C376.141 110.04 376.005 110.233 375.878 110.44C375.751 110.647 375.645 110.847 375.558 111.04V110.49L375.638 110.56C375.791 110.233 375.971 109.94 376.178 109.68C376.391 109.42 376.631 109.217 376.898 109.07C377.165 108.923 377.445 108.85 377.738 108.85C378.005 108.85 378.228 108.893 378.408 108.98C378.595 109.06 378.741 109.177 378.848 109.33C378.961 109.483 379.045 109.667 379.098 109.88C379.151 110.093 379.178 110.337 379.178 110.61V113.78L379.788 113.9V114H377.508ZM383.213 108.85C383.599 108.85 383.929 108.897 384.203 108.99C384.483 109.077 384.713 109.213 384.893 109.4C385.073 109.587 385.203 109.823 385.283 110.11C385.363 110.39 385.403 110.723 385.403 111.11V113.65C385.403 113.75 385.423 113.823 385.463 113.87C385.509 113.917 385.569 113.94 385.643 113.94C385.723 113.94 385.813 113.917 385.913 113.87C386.019 113.823 386.123 113.763 386.223 113.69V113.8C386.143 113.873 386.046 113.937 385.933 113.99C385.826 114.043 385.713 114.083 385.593 114.11C385.473 114.137 385.356 114.15 385.243 114.15C384.949 114.15 384.719 114.073 384.553 113.92C384.386 113.76 384.303 113.503 384.303 113.15C384.303 113.017 384.303 112.92 384.303 112.86C384.303 112.793 384.303 112.743 384.303 112.71C384.303 112.677 384.303 112.64 384.303 112.6L384.223 112.54C384.096 112.793 383.943 113.02 383.763 113.22C383.589 113.42 383.393 113.59 383.173 113.73C382.959 113.863 382.739 113.967 382.513 114.04C382.286 114.113 382.059 114.15 381.833 114.15C381.586 114.15 381.363 114.107 381.163 114.02C380.963 113.94 380.803 113.82 380.683 113.66C380.563 113.493 380.503 113.29 380.503 113.05C380.503 112.483 380.826 112.053 381.473 111.76C382.119 111.46 383.063 111.31 384.303 111.31C384.303 110.743 384.259 110.297 384.173 109.97C384.086 109.637 383.936 109.397 383.723 109.25C383.509 109.103 383.216 109.03 382.843 109.03C382.596 109.03 382.376 109.053 382.183 109.1C381.996 109.14 381.849 109.19 381.743 109.25C381.643 109.31 381.593 109.363 381.593 109.41C381.593 109.443 381.623 109.48 381.683 109.52C381.749 109.553 381.866 109.603 382.033 109.67C382.339 109.79 382.493 109.96 382.493 110.18C382.493 110.38 382.406 110.533 382.233 110.64C382.059 110.74 381.849 110.79 381.603 110.79C381.363 110.79 381.156 110.737 380.983 110.63C380.816 110.523 380.733 110.37 380.733 110.17C380.733 110.01 380.799 109.853 380.933 109.7C381.073 109.54 381.256 109.397 381.483 109.27C381.716 109.143 381.979 109.043 382.273 108.97C382.573 108.89 382.886 108.85 383.213 108.85ZM384.303 111.43C383.669 111.43 383.146 111.5 382.733 111.64C382.319 111.773 382.013 111.957 381.813 112.19C381.613 112.423 381.513 112.683 381.513 112.97C381.513 113.143 381.546 113.287 381.613 113.4C381.686 113.507 381.783 113.587 381.903 113.64C382.023 113.693 382.159 113.72 382.313 113.72C382.479 113.72 382.656 113.69 382.843 113.63C383.036 113.563 383.226 113.463 383.413 113.33C383.599 113.197 383.769 113.03 383.923 112.83C384.083 112.623 384.209 112.38 384.303 112.1V111.43Z" fill="black"/>
<path d="M482.92 106.92C483.48 106.92 483.95 106.993 484.33 107.14C484.71 107.28 484.997 107.49 485.19 107.77C485.383 108.05 485.48 108.393 485.48 108.8C485.48 109.453 485.227 109.963 484.72 110.33C484.22 110.69 483.513 110.87 482.6 110.87C482.367 110.87 482.133 110.863 481.9 110.85C481.667 110.83 481.447 110.807 481.24 110.78V110.55C481.527 110.657 481.917 110.71 482.41 110.71C483.017 110.71 483.483 110.547 483.81 110.22C484.143 109.893 484.31 109.433 484.31 108.84C484.31 108.46 484.24 108.14 484.1 107.88C483.967 107.62 483.77 107.423 483.51 107.29C483.25 107.15 482.93 107.08 482.55 107.08C482.383 107.08 482.217 107.083 482.05 107.09C481.89 107.097 481.743 107.103 481.61 107.11C481.483 107.117 481.38 107.13 481.3 107.15V113.77L481.91 113.9V114H479.54V113.9L480.15 113.77V107.15L479.54 107.02V106.92H482.92ZM488.546 108.85C488.933 108.85 489.263 108.897 489.536 108.99C489.816 109.077 490.046 109.213 490.226 109.4C490.406 109.587 490.536 109.823 490.616 110.11C490.696 110.39 490.736 110.723 490.736 111.11V113.65C490.736 113.75 490.756 113.823 490.796 113.87C490.843 113.917 490.903 113.94 490.976 113.94C491.056 113.94 491.146 113.917 491.246 113.87C491.353 113.823 491.456 113.763 491.556 113.69V113.8C491.476 113.873 491.38 113.937 491.266 113.99C491.16 114.043 491.046 114.083 490.926 114.11C490.806 114.137 490.69 114.15 490.576 114.15C490.283 114.15 490.053 114.073 489.886 113.92C489.72 113.76 489.636 113.503 489.636 113.15C489.636 113.017 489.636 112.92 489.636 112.86C489.636 112.793 489.636 112.743 489.636 112.71C489.636 112.677 489.636 112.64 489.636 112.6L489.556 112.54C489.43 112.793 489.276 113.02 489.096 113.22C488.923 113.42 488.726 113.59 488.506 113.73C488.293 113.863 488.073 113.967 487.846 114.04C487.62 114.113 487.393 114.15 487.166 114.15C486.92 114.15 486.696 114.107 486.496 114.02C486.296 113.94 486.136 113.82 486.016 113.66C485.896 113.493 485.836 113.29 485.836 113.05C485.836 112.483 486.16 112.053 486.806 111.76C487.453 111.46 488.396 111.31 489.636 111.31C489.636 110.743 489.593 110.297 489.506 109.97C489.42 109.637 489.27 109.397 489.056 109.25C488.843 109.103 488.55 109.03 488.176 109.03C487.93 109.03 487.71 109.053 487.516 109.1C487.33 109.14 487.183 109.19 487.076 109.25C486.976 109.31 486.926 109.363 486.926 109.41C486.926 109.443 486.956 109.48 487.016 109.52C487.083 109.553 487.2 109.603 487.366 109.67C487.673 109.79 487.826 109.96 487.826 110.18C487.826 110.38 487.74 110.533 487.566 110.64C487.393 110.74 487.183 110.79 486.936 110.79C486.696 110.79 486.49 110.737 486.316 110.63C486.15 110.523 486.066 110.37 486.066 110.17C486.066 110.01 486.133 109.853 486.266 109.7C486.406 109.54 486.59 109.397 486.816 109.27C487.05 109.143 487.313 109.043 487.606 108.97C487.906 108.89 488.22 108.85 488.546 108.85ZM489.636 111.43C489.003 111.43 488.48 111.5 488.066 111.64C487.653 111.773 487.346 111.957 487.146 112.19C486.946 112.423 486.846 112.683 486.846 112.97C486.846 113.143 486.88 113.287 486.946 113.4C487.02 113.507 487.116 113.587 487.236 113.64C487.356 113.693 487.493 113.72 487.646 113.72C487.813 113.72 487.99 113.69 488.176 113.63C488.37 113.563 488.56 113.463 488.746 113.33C488.933 113.197 489.103 113.03 489.256 112.83C489.416 112.623 489.543 112.38 489.636 112.1V111.43ZM492.094 114L495.594 109.15H493.894C493.581 109.15 493.324 109.23 493.124 109.39C492.931 109.543 492.824 109.81 492.804 110.19L492.774 111H492.674L492.274 109H496.944L493.424 113.85H495.374C495.621 113.85 495.824 113.777 495.984 113.63C496.151 113.483 496.244 113.227 496.264 112.86L496.354 112.13H496.454L496.924 114H492.094ZM500.47 108.85C500.857 108.85 501.187 108.897 501.46 108.99C501.74 109.077 501.97 109.213 502.15 109.4C502.33 109.587 502.46 109.823 502.54 110.11C502.62 110.39 502.66 110.723 502.66 111.11V113.65C502.66 113.75 502.68 113.823 502.72 113.87C502.767 113.917 502.827 113.94 502.9 113.94C502.98 113.94 503.07 113.917 503.17 113.87C503.277 113.823 503.38 113.763 503.48 113.69V113.8C503.4 113.873 503.304 113.937 503.19 113.99C503.084 114.043 502.97 114.083 502.85 114.11C502.73 114.137 502.614 114.15 502.5 114.15C502.207 114.15 501.977 114.073 501.81 113.92C501.644 113.76 501.56 113.503 501.56 113.15C501.56 113.017 501.56 112.92 501.56 112.86C501.56 112.793 501.56 112.743 501.56 112.71C501.56 112.677 501.56 112.64 501.56 112.6L501.48 112.54C501.354 112.793 501.2 113.02 501.02 113.22C500.847 113.42 500.65 113.59 500.43 113.73C500.217 113.863 499.997 113.967 499.77 114.04C499.544 114.113 499.317 114.15 499.09 114.15C498.844 114.15 498.62 114.107 498.42 114.02C498.22 113.94 498.06 113.82 497.94 113.66C497.82 113.493 497.76 113.29 497.76 113.05C497.76 112.483 498.084 112.053 498.73 111.76C499.377 111.46 500.32 111.31 501.56 111.31C501.56 110.743 501.517 110.297 501.43 109.97C501.344 109.637 501.194 109.397 500.98 109.25C500.767 109.103 500.474 109.03 500.1 109.03C499.854 109.03 499.634 109.053 499.44 109.1C499.254 109.14 499.107 109.19 499 109.25C498.9 109.31 498.85 109.363 498.85 109.41C498.85 109.443 498.88 109.48 498.94 109.52C499.007 109.553 499.124 109.603 499.29 109.67C499.597 109.79 499.75 109.96 499.75 110.18C499.75 110.38 499.664 110.533 499.49 110.64C499.317 110.74 499.107 110.79 498.86 110.79C498.62 110.79 498.414 110.737 498.24 110.63C498.074 110.523 497.99 110.37 497.99 110.17C497.99 110.01 498.057 109.853 498.19 109.7C498.33 109.54 498.514 109.397 498.74 109.27C498.974 109.143 499.237 109.043 499.53 108.97C499.83 108.89 500.144 108.85 500.47 108.85ZM501.56 111.43C500.927 111.43 500.404 111.5 499.99 111.64C499.577 111.773 499.27 111.957 499.07 112.19C498.87 112.423 498.77 112.683 498.77 112.97C498.77 113.143 498.804 113.287 498.87 113.4C498.944 113.507 499.04 113.587 499.16 113.64C499.28 113.693 499.417 113.72 499.57 113.72C499.737 113.72 499.914 113.69 500.1 113.63C500.294 113.563 500.484 113.463 500.67 113.33C500.857 113.197 501.027 113.03 501.18 112.83C501.34 112.623 501.467 112.38 501.56 112.1V111.43ZM504.128 114V113.9L504.678 113.78V109.3H504.068V109.19L505.778 108.85V110.44L505.858 110.52C505.958 110.293 506.054 110.09 506.148 109.91C506.241 109.73 506.334 109.58 506.428 109.46C506.594 109.247 506.768 109.093 506.948 109C507.134 108.9 507.338 108.85 507.558 108.85C507.711 108.85 507.851 108.88 507.978 108.94C508.111 109 508.218 109.09 508.298 109.21C508.384 109.323 508.428 109.47 508.428 109.65C508.428 109.783 508.391 109.907 508.318 110.02C508.251 110.133 508.154 110.227 508.028 110.3C507.901 110.367 507.748 110.4 507.568 110.4C507.408 110.4 507.264 110.373 507.138 110.32C507.011 110.26 506.911 110.18 506.838 110.08C506.771 109.98 506.738 109.87 506.738 109.75C506.738 109.697 506.741 109.653 506.748 109.62C506.761 109.58 506.771 109.543 506.778 109.51C506.784 109.47 506.788 109.44 506.788 109.42C506.788 109.373 506.771 109.35 506.738 109.35C506.671 109.35 506.591 109.41 506.498 109.53C506.411 109.643 506.311 109.813 506.198 110.04C506.124 110.173 506.051 110.333 505.978 110.52C505.904 110.707 505.838 110.9 505.778 111.1V113.78L506.338 113.9V114H504.128Z" fill="black"/>
<path d="M409.68 112.67C409.467 113.01 409.213 113.29 408.92 113.51C408.633 113.723 408.317 113.883 407.97 113.99C407.63 114.097 407.27 114.15 406.89 114.15C406.403 114.15 405.957 114.07 405.55 113.91C405.15 113.743 404.8 113.503 404.5 113.19C404.207 112.87 403.98 112.487 403.82 112.04C403.66 111.587 403.58 111.07 403.58 110.49C403.58 109.93 403.66 109.423 403.82 108.97C403.987 108.517 404.22 108.127 404.52 107.8C404.827 107.467 405.19 107.213 405.61 107.04C406.037 106.86 406.513 106.77 407.04 106.77C407.42 106.77 407.777 106.807 408.11 106.88C408.443 106.953 408.743 107.057 409.01 107.19C409.283 107.323 409.51 107.477 409.69 107.65L409.17 110.25H408.99L408.84 108.8C408.8 108.367 408.7 108.013 408.54 107.74C408.38 107.46 408.157 107.253 407.87 107.12C407.59 106.98 407.237 106.91 406.81 106.91C406.503 106.91 406.22 106.993 405.96 107.16C405.7 107.327 405.477 107.56 405.29 107.86C405.11 108.153 404.97 108.497 404.87 108.89C404.77 109.283 404.72 109.707 404.72 110.16C404.72 110.647 404.777 111.1 404.89 111.52C405.01 111.94 405.187 112.307 405.42 112.62C405.653 112.927 405.947 113.167 406.3 113.34C406.653 113.513 407.067 113.6 407.54 113.6C407.947 113.6 408.327 113.513 408.68 113.34C409.033 113.167 409.333 112.92 409.58 112.6L409.68 112.67ZM412.555 114.15C412.082 114.15 411.725 114.003 411.485 113.71C411.245 113.417 411.125 112.973 411.125 112.38V109.3H410.505V109.19L412.225 108.85V112.54C412.225 112.933 412.295 113.233 412.435 113.44C412.575 113.64 412.779 113.74 413.045 113.74C413.265 113.74 413.489 113.663 413.715 113.51C413.942 113.35 414.155 113.137 414.355 112.87C414.555 112.597 414.722 112.29 414.855 111.95V109.3H414.245V109.19L415.955 108.85V113.7H416.565V113.81L414.855 114.15V112.5L414.775 112.44C414.482 113.007 414.149 113.433 413.775 113.72C413.402 114.007 412.995 114.15 412.555 114.15ZM417.288 114V113.9L417.838 113.78V109.37H417.228V109.26L418.938 108.92V110.49L419.018 110.56C419.171 110.233 419.355 109.94 419.568 109.68C419.781 109.42 420.018 109.217 420.278 109.07C420.545 108.923 420.828 108.85 421.128 108.85C421.368 108.85 421.578 108.887 421.758 108.96C421.938 109.033 422.088 109.143 422.208 109.29C422.328 109.43 422.415 109.607 422.468 109.82C422.528 110.033 422.558 110.28 422.558 110.56V113.78L423.128 113.9V114H420.888V113.9L421.458 113.78V110.46C421.458 110.06 421.388 109.76 421.248 109.56C421.115 109.36 420.911 109.26 420.638 109.26C420.478 109.26 420.315 109.317 420.148 109.43C419.988 109.537 419.831 109.68 419.678 109.86C419.525 110.04 419.385 110.233 419.258 110.44C419.138 110.647 419.031 110.847 418.938 111.04V113.78L419.508 113.9V114H417.288ZM424.508 114V113.9L425.078 113.78V110.46C425.078 110.06 425.008 109.76 424.868 109.56C424.728 109.36 424.525 109.26 424.258 109.26C424.091 109.26 423.925 109.317 423.758 109.43C423.598 109.537 423.441 109.68 423.288 109.86C423.141 110.04 423.005 110.233 422.878 110.44C422.751 110.647 422.645 110.847 422.558 111.04V110.49L422.638 110.56C422.791 110.233 422.971 109.94 423.178 109.68C423.391 109.42 423.631 109.217 423.898 109.07C424.165 108.923 424.445 108.85 424.738 108.85C425.005 108.85 425.228 108.893 425.408 108.98C425.595 109.06 425.741 109.177 425.848 109.33C425.961 109.483 426.045 109.667 426.098 109.88C426.151 110.093 426.178 110.337 426.178 110.61V113.78L426.788 113.9V114H424.508ZM430.213 108.85C430.599 108.85 430.929 108.897 431.203 108.99C431.483 109.077 431.713 109.213 431.893 109.4C432.073 109.587 432.203 109.823 432.283 110.11C432.363 110.39 432.403 110.723 432.403 111.11V113.65C432.403 113.75 432.423 113.823 432.463 113.87C432.509 113.917 432.569 113.94 432.643 113.94C432.723 113.94 432.813 113.917 432.913 113.87C433.019 113.823 433.123 113.763 433.223 113.69V113.8C433.143 113.873 433.046 113.937 432.933 113.99C432.826 114.043 432.713 114.083 432.593 114.11C432.473 114.137 432.356 114.15 432.243 114.15C431.949 114.15 431.719 114.073 431.553 113.92C431.386 113.76 431.303 113.503 431.303 113.15C431.303 113.017 431.303 112.92 431.303 112.86C431.303 112.793 431.303 112.743 431.303 112.71C431.303 112.677 431.303 112.64 431.303 112.6L431.223 112.54C431.096 112.793 430.943 113.02 430.763 113.22C430.589 113.42 430.393 113.59 430.173 113.73C429.959 113.863 429.739 113.967 429.513 114.04C429.286 114.113 429.059 114.15 428.833 114.15C428.586 114.15 428.363 114.107 428.163 114.02C427.963 113.94 427.803 113.82 427.683 113.66C427.563 113.493 427.503 113.29 427.503 113.05C427.503 112.483 427.826 112.053 428.473 111.76C429.119 111.46 430.063 111.31 431.303 111.31C431.303 110.743 431.259 110.297 431.173 109.97C431.086 109.637 430.936 109.397 430.723 109.25C430.509 109.103 430.216 109.03 429.843 109.03C429.596 109.03 429.376 109.053 429.183 109.1C428.996 109.14 428.849 109.19 428.743 109.25C428.643 109.31 428.593 109.363 428.593 109.41C428.593 109.443 428.623 109.48 428.683 109.52C428.749 109.553 428.866 109.603 429.033 109.67C429.339 109.79 429.493 109.96 429.493 110.18C429.493 110.38 429.406 110.533 429.233 110.64C429.059 110.74 428.849 110.79 428.603 110.79C428.363 110.79 428.156 110.737 427.983 110.63C427.816 110.523 427.733 110.37 427.733 110.17C427.733 110.01 427.799 109.853 427.933 109.7C428.073 109.54 428.256 109.397 428.483 109.27C428.716 109.143 428.979 109.043 429.273 108.97C429.573 108.89 429.886 108.85 430.213 108.85ZM431.303 111.43C430.669 111.43 430.146 111.5 429.733 111.64C429.319 111.773 429.013 111.957 428.813 112.19C428.613 112.423 428.513 112.683 428.513 112.97C428.513 113.143 428.546 113.287 428.613 113.4C428.686 113.507 428.783 113.587 428.903 113.64C429.023 113.693 429.159 113.72 429.313 113.72C429.479 113.72 429.656 113.69 429.843 113.63C430.036 113.563 430.226 113.463 430.413 113.33C430.599 113.197 430.769 113.03 430.923 112.83C431.083 112.623 431.209 112.38 431.303 112.1V111.43ZM433.87 114V113.9L434.42 113.78V109.3H433.81V109.19L435.52 108.85V110.44L435.6 110.52C435.7 110.293 435.797 110.09 435.89 109.91C435.983 109.73 436.077 109.58 436.17 109.46C436.337 109.247 436.51 109.093 436.69 109C436.877 108.9 437.08 108.85 437.3 108.85C437.453 108.85 437.593 108.88 437.72 108.94C437.853 109 437.96 109.09 438.04 109.21C438.127 109.323 438.17 109.47 438.17 109.65C438.17 109.783 438.133 109.907 438.06 110.02C437.993 110.133 437.897 110.227 437.77 110.3C437.643 110.367 437.49 110.4 437.31 110.4C437.15 110.4 437.007 110.373 436.88 110.32C436.753 110.26 436.653 110.18 436.58 110.08C436.513 109.98 436.48 109.87 436.48 109.75C436.48 109.697 436.483 109.653 436.49 109.62C436.503 109.58 436.513 109.543 436.52 109.51C436.527 109.47 436.53 109.44 436.53 109.42C436.53 109.373 436.513 109.35 436.48 109.35C436.413 109.35 436.333 109.41 436.24 109.53C436.153 109.643 436.053 109.813 435.94 110.04C435.867 110.173 435.793 110.333 435.72 110.52C435.647 110.707 435.58 110.9 435.52 111.1V113.78L436.08 113.9V114H433.87ZM440.133 114.15C439.78 114.15 439.523 114.047 439.363 113.84C439.21 113.627 439.133 113.303 439.133 112.87V109.2H438.423V109.1L439.143 109L440.093 107.36H440.233V108.93L441.303 109.1V109.2H440.233V113.22C440.233 113.453 440.267 113.62 440.333 113.72C440.4 113.82 440.49 113.87 440.603 113.87C440.723 113.87 440.837 113.83 440.943 113.75C441.057 113.663 441.17 113.557 441.283 113.43L441.323 113.55C441.257 113.623 441.177 113.697 441.083 113.77C440.997 113.837 440.9 113.9 440.793 113.96C440.693 114.02 440.587 114.067 440.473 114.1C440.367 114.133 440.253 114.15 440.133 114.15ZM444.528 108.85C445.062 108.85 445.502 108.957 445.848 109.17C446.202 109.383 446.465 109.673 446.638 110.04C446.818 110.4 446.908 110.813 446.908 111.28H442.958V111.18L445.888 111.07C445.888 110.63 445.838 110.257 445.738 109.95C445.638 109.637 445.488 109.397 445.288 109.23C445.088 109.063 444.835 108.98 444.528 108.98C444.215 108.98 443.942 109.07 443.708 109.25C443.475 109.43 443.295 109.7 443.168 110.06C443.042 110.42 442.978 110.867 442.978 111.4C442.978 111.713 443.022 112.013 443.108 112.3C443.195 112.58 443.318 112.833 443.478 113.06C443.638 113.28 443.835 113.453 444.068 113.58C444.302 113.707 444.568 113.77 444.868 113.77C445.068 113.77 445.265 113.743 445.458 113.69C445.652 113.637 445.832 113.56 445.998 113.46C446.165 113.353 446.315 113.227 446.448 113.08C446.588 112.927 446.708 112.75 446.808 112.55L446.908 112.65C446.762 112.943 446.595 113.187 446.408 113.38C446.222 113.573 446.018 113.727 445.798 113.84C445.578 113.953 445.352 114.033 445.118 114.08C444.885 114.127 444.648 114.15 444.408 114.15C444.008 114.15 443.652 114.08 443.338 113.94C443.025 113.8 442.758 113.613 442.538 113.38C442.318 113.14 442.148 112.863 442.028 112.55C441.915 112.237 441.858 111.903 441.858 111.55C441.858 111.143 441.925 110.777 442.058 110.45C442.192 110.117 442.375 109.83 442.608 109.59C442.848 109.35 443.132 109.167 443.458 109.04C443.785 108.913 444.142 108.85 444.528 108.85ZM450.054 114.15C449.754 114.15 449.47 114.123 449.204 114.07C448.944 114.017 448.71 113.937 448.504 113.83C448.304 113.723 448.147 113.597 448.034 113.45C447.92 113.303 447.864 113.14 447.864 112.96C447.864 112.827 447.9 112.717 447.974 112.63C448.054 112.537 448.154 112.467 448.274 112.42C448.394 112.373 448.52 112.35 448.654 112.35C448.787 112.35 448.914 112.373 449.034 112.42C449.154 112.46 449.25 112.52 449.324 112.6C449.397 112.68 449.434 112.777 449.434 112.89C449.434 112.983 449.41 113.067 449.364 113.14C449.324 113.213 449.26 113.283 449.174 113.35C449.067 113.423 448.994 113.483 448.954 113.53C448.914 113.577 448.894 113.627 448.894 113.68C448.894 113.733 448.94 113.787 449.034 113.84C449.127 113.893 449.257 113.94 449.424 113.98C449.597 114.013 449.79 114.03 450.004 114.03C450.304 114.03 450.567 113.993 450.794 113.92C451.02 113.84 451.197 113.727 451.324 113.58C451.457 113.433 451.524 113.247 451.524 113.02C451.524 112.847 451.47 112.69 451.364 112.55C451.257 112.41 451.08 112.277 450.834 112.15C450.587 112.023 450.25 111.893 449.824 111.76C449.35 111.6 448.974 111.44 448.694 111.28C448.42 111.12 448.224 110.95 448.104 110.77C447.99 110.59 447.934 110.393 447.934 110.18C447.934 109.773 448.134 109.45 448.534 109.21C448.94 108.97 449.487 108.85 450.174 108.85C450.547 108.85 450.89 108.9 451.204 109C451.517 109.1 451.77 109.24 451.964 109.42C452.157 109.593 452.254 109.8 452.254 110.04C452.254 110.167 452.217 110.273 452.144 110.36C452.07 110.44 451.974 110.5 451.854 110.54C451.74 110.58 451.62 110.6 451.494 110.6C451.394 110.6 451.294 110.59 451.194 110.57C451.1 110.543 451.014 110.51 450.934 110.47C450.86 110.423 450.8 110.367 450.754 110.3C450.707 110.227 450.684 110.143 450.684 110.05C450.684 109.87 450.784 109.713 450.984 109.58C451.09 109.513 451.164 109.457 451.204 109.41C451.244 109.363 451.264 109.32 451.264 109.28C451.264 109.247 451.237 109.21 451.184 109.17C451.13 109.13 451.054 109.097 450.954 109.07C450.86 109.037 450.754 109.013 450.634 109C450.514 108.98 450.384 108.97 450.244 108.97C449.944 108.97 449.677 109.003 449.444 109.07C449.21 109.137 449.027 109.237 448.894 109.37C448.76 109.497 448.694 109.653 448.694 109.84C448.694 110.007 448.757 110.167 448.884 110.32C449.01 110.467 449.197 110.603 449.444 110.73C449.69 110.85 449.994 110.97 450.354 111.09C450.854 111.263 451.247 111.427 451.534 111.58C451.827 111.733 452.037 111.893 452.164 112.06C452.29 112.22 452.354 112.407 452.354 112.62C452.354 112.867 452.294 113.087 452.174 113.28C452.054 113.473 451.89 113.633 451.684 113.76C451.477 113.887 451.234 113.983 450.954 114.05C450.68 114.117 450.38 114.15 450.054 114.15ZM454.285 108.04C454.112 108.04 453.958 108.013 453.825 107.96C453.692 107.907 453.588 107.833 453.515 107.74C453.442 107.647 453.405 107.54 453.405 107.42C453.405 107.293 453.442 107.187 453.515 107.1C453.588 107.007 453.692 106.933 453.825 106.88C453.958 106.827 454.112 106.8 454.285 106.8C454.458 106.8 454.612 106.827 454.745 106.88C454.878 106.933 454.982 107.007 455.055 107.1C455.135 107.187 455.175 107.293 455.175 107.42C455.175 107.54 455.135 107.647 455.055 107.74C454.982 107.833 454.878 107.907 454.745 107.96C454.612 108.013 454.458 108.04 454.285 108.04ZM453.235 114V113.9L453.795 113.8V109.3H453.175V109.19L454.895 108.85V113.8L455.445 113.9V114H453.235Z" fill="black"/>
<path d="M103 122.5L519 122" stroke="black"/>
<path d="M117.92 106.92C118.48 106.92 118.95 106.993 119.33 107.14C119.71 107.28 119.997 107.49 120.19 107.77C120.383 108.05 120.48 108.393 120.48 108.8C120.48 109.453 120.227 109.963 119.72 110.33C119.22 110.69 118.513 110.87 117.6 110.87C117.367 110.87 117.133 110.863 116.9 110.85C116.667 110.83 116.447 110.807 116.24 110.78V110.55C116.527 110.657 116.917 110.71 117.41 110.71C118.017 110.71 118.483 110.547 118.81 110.22C119.143 109.893 119.31 109.433 119.31 108.84C119.31 108.46 119.24 108.14 119.1 107.88C118.967 107.62 118.77 107.423 118.51 107.29C118.25 107.15 117.93 107.08 117.55 107.08C117.383 107.08 117.217 107.083 117.05 107.09C116.89 107.097 116.743 107.103 116.61 107.11C116.483 107.117 116.38 107.13 116.3 107.15V113.77L116.91 113.9V114H114.54V113.9L115.15 113.77V107.15L114.54 107.02V106.92H117.92ZM123.546 108.85C123.933 108.85 124.263 108.897 124.536 108.99C124.816 109.077 125.046 109.213 125.226 109.4C125.406 109.587 125.536 109.823 125.616 110.11C125.696 110.39 125.736 110.723 125.736 111.11V113.65C125.736 113.75 125.756 113.823 125.796 113.87C125.843 113.917 125.903 113.94 125.976 113.94C126.056 113.94 126.146 113.917 126.246 113.87C126.353 113.823 126.456 113.763 126.556 113.69V113.8C126.476 113.873 126.38 113.937 126.266 113.99C126.16 114.043 126.046 114.083 125.926 114.11C125.806 114.137 125.69 114.15 125.576 114.15C125.283 114.15 125.053 114.073 124.886 113.92C124.72 113.76 124.636 113.503 124.636 113.15C124.636 113.017 124.636 112.92 124.636 112.86C124.636 112.793 124.636 112.743 124.636 112.71C124.636 112.677 124.636 112.64 124.636 112.6L124.556 112.54C124.43 112.793 124.276 113.02 124.096 113.22C123.923 113.42 123.726 113.59 123.506 113.73C123.293 113.863 123.073 113.967 122.846 114.04C122.62 114.113 122.393 114.15 122.166 114.15C121.92 114.15 121.696 114.107 121.496 114.02C121.296 113.94 121.136 113.82 121.016 113.66C120.896 113.493 120.836 113.29 120.836 113.05C120.836 112.483 121.16 112.053 121.806 111.76C122.453 111.46 123.396 111.31 124.636 111.31C124.636 110.743 124.593 110.297 124.506 109.97C124.42 109.637 124.27 109.397 124.056 109.25C123.843 109.103 123.55 109.03 123.176 109.03C122.93 109.03 122.71 109.053 122.516 109.1C122.33 109.14 122.183 109.19 122.076 109.25C121.976 109.31 121.926 109.363 121.926 109.41C121.926 109.443 121.956 109.48 122.016 109.52C122.083 109.553 122.2 109.603 122.366 109.67C122.673 109.79 122.826 109.96 122.826 110.18C122.826 110.38 122.74 110.533 122.566 110.64C122.393 110.74 122.183 110.79 121.936 110.79C121.696 110.79 121.49 110.737 121.316 110.63C121.15 110.523 121.066 110.37 121.066 110.17C121.066 110.01 121.133 109.853 121.266 109.7C121.406 109.54 121.59 109.397 121.816 109.27C122.05 109.143 122.313 109.043 122.606 108.97C122.906 108.89 123.22 108.85 123.546 108.85ZM124.636 111.43C124.003 111.43 123.48 111.5 123.066 111.64C122.653 111.773 122.346 111.957 122.146 112.19C121.946 112.423 121.846 112.683 121.846 112.97C121.846 113.143 121.88 113.287 121.946 113.4C122.02 113.507 122.116 113.587 122.236 113.64C122.356 113.693 122.493 113.72 122.646 113.72C122.813 113.72 122.99 113.69 123.176 113.63C123.37 113.563 123.56 113.463 123.746 113.33C123.933 113.197 124.103 113.03 124.256 112.83C124.416 112.623 124.543 112.38 124.636 112.1V111.43ZM127.094 114L130.594 109.15H128.894C128.581 109.15 128.324 109.23 128.124 109.39C127.931 109.543 127.824 109.81 127.804 110.19L127.774 111H127.674L127.274 109H131.944L128.424 113.85H130.374C130.621 113.85 130.824 113.777 130.984 113.63C131.151 113.483 131.244 113.227 131.264 112.86L131.354 112.13H131.454L131.924 114H127.094ZM135.47 108.85C135.857 108.85 136.187 108.897 136.46 108.99C136.74 109.077 136.97 109.213 137.15 109.4C137.33 109.587 137.46 109.823 137.54 110.11C137.62 110.39 137.66 110.723 137.66 111.11V113.65C137.66 113.75 137.68 113.823 137.72 113.87C137.767 113.917 137.827 113.94 137.9 113.94C137.98 113.94 138.07 113.917 138.17 113.87C138.277 113.823 138.38 113.763 138.48 113.69V113.8C138.4 113.873 138.304 113.937 138.19 113.99C138.084 114.043 137.97 114.083 137.85 114.11C137.73 114.137 137.614 114.15 137.5 114.15C137.207 114.15 136.977 114.073 136.81 113.92C136.644 113.76 136.56 113.503 136.56 113.15C136.56 113.017 136.56 112.92 136.56 112.86C136.56 112.793 136.56 112.743 136.56 112.71C136.56 112.677 136.56 112.64 136.56 112.6L136.48 112.54C136.354 112.793 136.2 113.02 136.02 113.22C135.847 113.42 135.65 113.59 135.43 113.73C135.217 113.863 134.997 113.967 134.77 114.04C134.544 114.113 134.317 114.15 134.09 114.15C133.844 114.15 133.62 114.107 133.42 114.02C133.22 113.94 133.06 113.82 132.94 113.66C132.82 113.493 132.76 113.29 132.76 113.05C132.76 112.483 133.084 112.053 133.73 111.76C134.377 111.46 135.32 111.31 136.56 111.31C136.56 110.743 136.517 110.297 136.43 109.97C136.344 109.637 136.194 109.397 135.98 109.25C135.767 109.103 135.474 109.03 135.1 109.03C134.854 109.03 134.634 109.053 134.44 109.1C134.254 109.14 134.107 109.19 134 109.25C133.9 109.31 133.85 109.363 133.85 109.41C133.85 109.443 133.88 109.48 133.94 109.52C134.007 109.553 134.124 109.603 134.29 109.67C134.597 109.79 134.75 109.96 134.75 110.18C134.75 110.38 134.664 110.533 134.49 110.64C134.317 110.74 134.107 110.79 133.86 110.79C133.62 110.79 133.414 110.737 133.24 110.63C133.074 110.523 132.99 110.37 132.99 110.17C132.99 110.01 133.057 109.853 133.19 109.7C133.33 109.54 133.514 109.397 133.74 109.27C133.974 109.143 134.237 109.043 134.53 108.97C134.83 108.89 135.144 108.85 135.47 108.85ZM136.56 111.43C135.927 111.43 135.404 111.5 134.99 111.64C134.577 111.773 134.27 111.957 134.07 112.19C133.87 112.423 133.77 112.683 133.77 112.97C133.77 113.143 133.804 113.287 133.87 113.4C133.944 113.507 134.04 113.587 134.16 113.64C134.28 113.693 134.417 113.72 134.57 113.72C134.737 113.72 134.914 113.69 135.1 113.63C135.294 113.563 135.484 113.463 135.67 113.33C135.857 113.197 136.027 113.03 136.18 112.83C136.34 112.623 136.467 112.38 136.56 112.1V111.43ZM139.128 114V113.9L139.678 113.78V109.3H139.068V109.19L140.778 108.85V110.44L140.858 110.52C140.958 110.293 141.054 110.09 141.148 109.91C141.241 109.73 141.334 109.58 141.428 109.46C141.594 109.247 141.768 109.093 141.948 109C142.134 108.9 142.338 108.85 142.558 108.85C142.711 108.85 142.851 108.88 142.978 108.94C143.111 109 143.218 109.09 143.298 109.21C143.384 109.323 143.428 109.47 143.428 109.65C143.428 109.783 143.391 109.907 143.318 110.02C143.251 110.133 143.154 110.227 143.028 110.3C142.901 110.367 142.748 110.4 142.568 110.4C142.408 110.4 142.264 110.373 142.138 110.32C142.011 110.26 141.911 110.18 141.838 110.08C141.771 109.98 141.738 109.87 141.738 109.75C141.738 109.697 141.741 109.653 141.748 109.62C141.761 109.58 141.771 109.543 141.778 109.51C141.784 109.47 141.788 109.44 141.788 109.42C141.788 109.373 141.771 109.35 141.738 109.35C141.671 109.35 141.591 109.41 141.498 109.53C141.411 109.643 141.311 109.813 141.198 110.04C141.124 110.173 141.051 110.333 140.978 110.52C140.904 110.707 140.838 110.9 140.778 111.1V113.78L141.338 113.9V114H139.128ZM145.391 114.15C145.038 114.15 144.781 114.047 144.621 113.84C144.468 113.627 144.391 113.303 144.391 112.87V109.2H143.681V109.1L144.401 109L145.351 107.36H145.491V108.93L146.561 109.1V109.2H145.491V113.22C145.491 113.453 145.524 113.62 145.591 113.72C145.658 113.82 145.748 113.87 145.861 113.87C145.981 113.87 146.094 113.83 146.201 113.75C146.314 113.663 146.428 113.557 146.541 113.43L146.581 113.55C146.514 113.623 146.434 113.697 146.341 113.77C146.254 113.837 146.158 113.9 146.051 113.96C145.951 114.02 145.844 114.067 145.731 114.1C145.624 114.133 145.511 114.15 145.391 114.15ZM149.786 108.85C150.319 108.85 150.759 108.957 151.106 109.17C151.459 109.383 151.723 109.673 151.896 110.04C152.076 110.4 152.166 110.813 152.166 111.28H148.216V111.18L151.146 111.07C151.146 110.63 151.096 110.257 150.996 109.95C150.896 109.637 150.746 109.397 150.546 109.23C150.346 109.063 150.093 108.98 149.786 108.98C149.473 108.98 149.199 109.07 148.966 109.25C148.733 109.43 148.553 109.7 148.426 110.06C148.299 110.42 148.236 110.867 148.236 111.4C148.236 111.713 148.279 112.013 148.366 112.3C148.453 112.58 148.576 112.833 148.736 113.06C148.896 113.28 149.093 113.453 149.326 113.58C149.559 113.707 149.826 113.77 150.126 113.77C150.326 113.77 150.523 113.743 150.716 113.69C150.909 113.637 151.089 113.56 151.256 113.46C151.423 113.353 151.573 113.227 151.706 113.08C151.846 112.927 151.966 112.75 152.066 112.55L152.166 112.65C152.019 112.943 151.853 113.187 151.666 113.38C151.479 113.573 151.276 113.727 151.056 113.84C150.836 113.953 150.609 114.033 150.376 114.08C150.143 114.127 149.906 114.15 149.666 114.15C149.266 114.15 148.909 114.08 148.596 113.94C148.283 113.8 148.016 113.613 147.796 113.38C147.576 113.14 147.406 112.863 147.286 112.55C147.173 112.237 147.116 111.903 147.116 111.55C147.116 111.143 147.183 110.777 147.316 110.45C147.449 110.117 147.633 109.83 147.866 109.59C148.106 109.35 148.389 109.167 148.716 109.04C149.043 108.913 149.399 108.85 149.786 108.85ZM155.311 114.15C155.011 114.15 154.728 114.123 154.461 114.07C154.201 114.017 153.968 113.937 153.761 113.83C153.561 113.723 153.405 113.597 153.291 113.45C153.178 113.303 153.121 113.14 153.121 112.96C153.121 112.827 153.158 112.717 153.231 112.63C153.311 112.537 153.411 112.467 153.531 112.42C153.651 112.373 153.778 112.35 153.911 112.35C154.045 112.35 154.171 112.373 154.291 112.42C154.411 112.46 154.508 112.52 154.581 112.6C154.655 112.68 154.691 112.777 154.691 112.89C154.691 112.983 154.668 113.067 154.621 113.14C154.581 113.213 154.518 113.283 154.431 113.35C154.325 113.423 154.251 113.483 154.211 113.53C154.171 113.577 154.151 113.627 154.151 113.68C154.151 113.733 154.198 113.787 154.291 113.84C154.385 113.893 154.515 113.94 154.681 113.98C154.855 114.013 155.048 114.03 155.261 114.03C155.561 114.03 155.825 113.993 156.051 113.92C156.278 113.84 156.455 113.727 156.581 113.58C156.715 113.433 156.781 113.247 156.781 113.02C156.781 112.847 156.728 112.69 156.621 112.55C156.515 112.41 156.338 112.277 156.091 112.15C155.845 112.023 155.508 111.893 155.081 111.76C154.608 111.6 154.231 111.44 153.951 111.28C153.678 111.12 153.481 110.95 153.361 110.77C153.248 110.59 153.191 110.393 153.191 110.18C153.191 109.773 153.391 109.45 153.791 109.21C154.198 108.97 154.745 108.85 155.431 108.85C155.805 108.85 156.148 108.9 156.461 109C156.775 109.1 157.028 109.24 157.221 109.42C157.415 109.593 157.511 109.8 157.511 110.04C157.511 110.167 157.475 110.273 157.401 110.36C157.328 110.44 157.231 110.5 157.111 110.54C156.998 110.58 156.878 110.6 156.751 110.6C156.651 110.6 156.551 110.59 156.451 110.57C156.358 110.543 156.271 110.51 156.191 110.47C156.118 110.423 156.058 110.367 156.011 110.3C155.965 110.227 155.941 110.143 155.941 110.05C155.941 109.87 156.041 109.713 156.241 109.58C156.348 109.513 156.421 109.457 156.461 109.41C156.501 109.363 156.521 109.32 156.521 109.28C156.521 109.247 156.495 109.21 156.441 109.17C156.388 109.13 156.311 109.097 156.211 109.07C156.118 109.037 156.011 109.013 155.891 109C155.771 108.98 155.641 108.97 155.501 108.97C155.201 108.97 154.935 109.003 154.701 109.07C154.468 109.137 154.285 109.237 154.151 109.37C154.018 109.497 153.951 109.653 153.951 109.84C153.951 110.007 154.015 110.167 154.141 110.32C154.268 110.467 154.455 110.603 154.701 110.73C154.948 110.85 155.251 110.97 155.611 111.09C156.111 111.263 156.505 111.427 156.791 111.58C157.085 111.733 157.295 111.893 157.421 112.06C157.548 112.22 157.611 112.407 157.611 112.62C157.611 112.867 157.551 113.087 157.431 113.28C157.311 113.473 157.148 113.633 156.941 113.76C156.735 113.887 156.491 113.983 156.211 114.05C155.938 114.117 155.638 114.15 155.311 114.15ZM159.543 108.04C159.369 108.04 159.216 108.013 159.083 107.96C158.949 107.907 158.846 107.833 158.773 107.74C158.699 107.647 158.663 107.54 158.663 107.42C158.663 107.293 158.699 107.187 158.773 107.1C158.846 107.007 158.949 106.933 159.083 106.88C159.216 106.827 159.369 106.8 159.543 106.8C159.716 106.8 159.869 106.827 160.003 106.88C160.136 106.933 160.239 107.007 160.313 107.1C160.393 107.187 160.433 107.293 160.433 107.42C160.433 107.54 160.393 107.647 160.313 107.74C160.239 107.833 160.136 107.907 160.003 107.96C159.869 108.013 159.716 108.04 159.543 108.04ZM158.493 114V113.9L159.053 113.8V109.3H158.433V109.19L160.153 108.85V113.8L160.703 113.9V114H158.493Z" fill="black"/>
<path d="M187.38 114.15C187.067 114.15 186.743 114.117 186.41 114.05C186.083 113.99 185.763 113.903 185.45 113.79C185.137 113.67 184.843 113.527 184.57 113.36L184.77 111.11H184.92L185.3 112.47C185.373 112.797 185.51 113.077 185.71 113.31C185.917 113.537 186.17 113.71 186.47 113.83C186.777 113.943 187.12 114 187.5 114C187.847 114 188.143 113.953 188.39 113.86C188.637 113.767 188.823 113.63 188.95 113.45C189.083 113.27 189.15 113.06 189.15 112.82C189.15 112.56 189.087 112.33 188.96 112.13C188.833 111.93 188.62 111.737 188.32 111.55C188.02 111.357 187.613 111.153 187.1 110.94C186.487 110.66 186 110.403 185.64 110.17C185.28 109.93 185.023 109.687 184.87 109.44C184.717 109.193 184.64 108.92 184.64 108.62C184.64 108.347 184.703 108.097 184.83 107.87C184.957 107.643 185.137 107.45 185.37 107.29C185.61 107.123 185.897 106.997 186.23 106.91C186.563 106.817 186.94 106.77 187.36 106.77C187.733 106.77 188.087 106.807 188.42 106.88C188.753 106.947 189.057 107.04 189.33 107.16C189.603 107.28 189.833 107.417 190.02 107.57L189.69 109.66H189.55L189.37 108.77C189.27 108.337 189.127 107.983 188.94 107.71C188.753 107.437 188.52 107.237 188.24 107.11C187.967 106.983 187.64 106.92 187.26 106.92C186.893 106.92 186.58 106.967 186.32 107.06C186.06 107.147 185.86 107.273 185.72 107.44C185.58 107.607 185.51 107.81 185.51 108.05C185.51 108.29 185.58 108.51 185.72 108.71C185.867 108.91 186.107 109.113 186.44 109.32C186.78 109.527 187.237 109.753 187.81 110C188.263 110.187 188.64 110.367 188.94 110.54C189.247 110.713 189.493 110.887 189.68 111.06C189.867 111.233 190 111.417 190.08 111.61C190.167 111.803 190.21 112.017 190.21 112.25C190.21 112.51 190.16 112.743 190.06 112.95C189.96 113.157 189.82 113.337 189.64 113.49C189.46 113.637 189.25 113.76 189.01 113.86C188.777 113.96 188.52 114.033 188.24 114.08C187.967 114.127 187.68 114.15 187.38 114.15ZM193.82 108.85C194.207 108.85 194.537 108.897 194.81 108.99C195.09 109.077 195.32 109.213 195.5 109.4C195.68 109.587 195.81 109.823 195.89 110.11C195.97 110.39 196.01 110.723 196.01 111.11V113.65C196.01 113.75 196.03 113.823 196.07 113.87C196.117 113.917 196.177 113.94 196.25 113.94C196.33 113.94 196.42 113.917 196.52 113.87C196.627 113.823 196.73 113.763 196.83 113.69V113.8C196.75 113.873 196.653 113.937 196.54 113.99C196.433 114.043 196.32 114.083 196.2 114.11C196.08 114.137 195.963 114.15 195.85 114.15C195.557 114.15 195.327 114.073 195.16 113.92C194.993 113.76 194.91 113.503 194.91 113.15C194.91 113.017 194.91 112.92 194.91 112.86C194.91 112.793 194.91 112.743 194.91 112.71C194.91 112.677 194.91 112.64 194.91 112.6L194.83 112.54C194.703 112.793 194.55 113.02 194.37 113.22C194.197 113.42 194 113.59 193.78 113.73C193.567 113.863 193.347 113.967 193.12 114.04C192.893 114.113 192.667 114.15 192.44 114.15C192.193 114.15 191.97 114.107 191.77 114.02C191.57 113.94 191.41 113.82 191.29 113.66C191.17 113.493 191.11 113.29 191.11 113.05C191.11 112.483 191.433 112.053 192.08 111.76C192.727 111.46 193.67 111.31 194.91 111.31C194.91 110.743 194.867 110.297 194.78 109.97C194.693 109.637 194.543 109.397 194.33 109.25C194.117 109.103 193.823 109.03 193.45 109.03C193.203 109.03 192.983 109.053 192.79 109.1C192.603 109.14 192.457 109.19 192.35 109.25C192.25 109.31 192.2 109.363 192.2 109.41C192.2 109.443 192.23 109.48 192.29 109.52C192.357 109.553 192.473 109.603 192.64 109.67C192.947 109.79 193.1 109.96 193.1 110.18C193.1 110.38 193.013 110.533 192.84 110.64C192.667 110.74 192.457 110.79 192.21 110.79C191.97 110.79 191.763 110.737 191.59 110.63C191.423 110.523 191.34 110.37 191.34 110.17C191.34 110.01 191.407 109.853 191.54 109.7C191.68 109.54 191.863 109.397 192.09 109.27C192.323 109.143 192.587 109.043 192.88 108.97C193.18 108.89 193.493 108.85 193.82 108.85ZM194.91 111.43C194.277 111.43 193.753 111.5 193.34 111.64C192.927 111.773 192.62 111.957 192.42 112.19C192.22 112.423 192.12 112.683 192.12 112.97C192.12 113.143 192.153 113.287 192.22 113.4C192.293 113.507 192.39 113.587 192.51 113.64C192.63 113.693 192.767 113.72 192.92 113.72C193.087 113.72 193.263 113.69 193.45 113.63C193.643 113.563 193.833 113.463 194.02 113.33C194.207 113.197 194.377 113.03 194.53 112.83C194.69 112.623 194.817 112.38 194.91 112.1V111.43ZM199.127 113.8L199.677 113.9V114H197.467V113.9L198.027 113.8V107H197.407V106.89L199.127 106.55V113.8ZM200.446 114V113.9L201.006 113.8V109.3H200.386V109.19L202.106 108.85V113.8L202.656 113.9V114H200.446Z" fill="black"/>
<path d="M225.68 112.67C225.467 113.01 225.213 113.29 224.92 113.51C224.633 113.723 224.317 113.883 223.97 113.99C223.63 114.097 223.27 114.15 222.89 114.15C222.403 114.15 221.957 114.07 221.55 113.91C221.15 113.743 220.8 113.503 220.5 113.19C220.207 112.87 219.98 112.487 219.82 112.04C219.66 111.587 219.58 111.07 219.58 110.49C219.58 109.93 219.66 109.423 219.82 108.97C219.987 108.517 220.22 108.127 220.52 107.8C220.827 107.467 221.19 107.213 221.61 107.04C222.037 106.86 222.513 106.77 223.04 106.77C223.42 106.77 223.777 106.807 224.11 106.88C224.443 106.953 224.743 107.057 225.01 107.19C225.283 107.323 225.51 107.477 225.69 107.65L225.17 110.25H224.99L224.84 108.8C224.8 108.367 224.7 108.013 224.54 107.74C224.38 107.46 224.157 107.253 223.87 107.12C223.59 106.98 223.237 106.91 222.81 106.91C222.503 106.91 222.22 106.993 221.96 107.16C221.7 107.327 221.477 107.56 221.29 107.86C221.11 108.153 220.97 108.497 220.87 108.89C220.77 109.283 220.72 109.707 220.72 110.16C220.72 110.647 220.777 111.1 220.89 111.52C221.01 111.94 221.187 112.307 221.42 112.62C221.653 112.927 221.947 113.167 222.3 113.34C222.653 113.513 223.067 113.6 223.54 113.6C223.947 113.6 224.327 113.513 224.68 113.34C225.033 113.167 225.333 112.92 225.58 112.6L225.68 112.67ZM223.05 116.15C222.81 116.15 222.6 116.093 222.42 115.98C222.247 115.873 222.123 115.713 222.05 115.5L222.15 115.4C222.217 115.553 222.313 115.67 222.44 115.75C222.567 115.83 222.71 115.87 222.87 115.87C222.997 115.87 223.107 115.84 223.2 115.78C223.293 115.727 223.363 115.65 223.41 115.55C223.463 115.457 223.49 115.35 223.49 115.23C223.49 115.13 223.47 115.033 223.43 114.94C223.39 114.853 223.33 114.773 223.25 114.7C223.177 114.627 223.08 114.567 222.96 114.52C222.84 114.48 222.703 114.46 222.55 114.46L222.73 114H222.86L222.78 114.24L222.86 114.35C223.1 114.37 223.3 114.423 223.46 114.51C223.62 114.603 223.74 114.713 223.82 114.84C223.9 114.973 223.94 115.12 223.94 115.28C223.94 115.433 223.903 115.577 223.83 115.71C223.757 115.843 223.653 115.95 223.52 116.03C223.387 116.11 223.23 116.15 223.05 116.15ZM229.425 108.85C229.812 108.85 230.142 108.897 230.415 108.99C230.695 109.077 230.925 109.213 231.105 109.4C231.285 109.587 231.415 109.823 231.495 110.11C231.575 110.39 231.615 110.723 231.615 111.11V113.65C231.615 113.75 231.635 113.823 231.675 113.87C231.722 113.917 231.782 113.94 231.855 113.94C231.935 113.94 232.025 113.917 232.125 113.87C232.232 113.823 232.335 113.763 232.435 113.69V113.8C232.355 113.873 232.259 113.937 232.145 113.99C232.039 114.043 231.925 114.083 231.805 114.11C231.685 114.137 231.569 114.15 231.455 114.15C231.162 114.15 230.932 114.073 230.765 113.92C230.599 113.76 230.515 113.503 230.515 113.15C230.515 113.017 230.515 112.92 230.515 112.86C230.515 112.793 230.515 112.743 230.515 112.71C230.515 112.677 230.515 112.64 230.515 112.6L230.435 112.54C230.309 112.793 230.155 113.02 229.975 113.22C229.802 113.42 229.605 113.59 229.385 113.73C229.172 113.863 228.952 113.967 228.725 114.04C228.499 114.113 228.272 114.15 228.045 114.15C227.799 114.15 227.575 114.107 227.375 114.02C227.175 113.94 227.015 113.82 226.895 113.66C226.775 113.493 226.715 113.29 226.715 113.05C226.715 112.483 227.039 112.053 227.685 111.76C228.332 111.46 229.275 111.31 230.515 111.31C230.515 110.743 230.472 110.297 230.385 109.97C230.299 109.637 230.149 109.397 229.935 109.25C229.722 109.103 229.429 109.03 229.055 109.03C228.809 109.03 228.589 109.053 228.395 109.1C228.209 109.14 228.062 109.19 227.955 109.25C227.855 109.31 227.805 109.363 227.805 109.41C227.805 109.443 227.835 109.48 227.895 109.52C227.962 109.553 228.079 109.603 228.245 109.67C228.552 109.79 228.705 109.96 228.705 110.18C228.705 110.38 228.619 110.533 228.445 110.64C228.272 110.74 228.062 110.79 227.815 110.79C227.575 110.79 227.369 110.737 227.195 110.63C227.029 110.523 226.945 110.37 226.945 110.17C226.945 110.01 227.012 109.853 227.145 109.7C227.285 109.54 227.469 109.397 227.695 109.27C227.929 109.143 228.192 109.043 228.485 108.97C228.785 108.89 229.099 108.85 229.425 108.85ZM230.515 111.43C229.882 111.43 229.359 111.5 228.945 111.64C228.532 111.773 228.225 111.957 228.025 112.19C227.825 112.423 227.725 112.683 227.725 112.97C227.725 113.143 227.759 113.287 227.825 113.4C227.899 113.507 227.995 113.587 228.115 113.64C228.235 113.693 228.372 113.72 228.525 113.72C228.692 113.72 228.869 113.69 229.055 113.63C229.249 113.563 229.439 113.463 229.625 113.33C229.812 113.197 229.982 113.03 230.135 112.83C230.295 112.623 230.422 112.38 230.515 112.1V111.43ZM233.083 114V113.9L233.633 113.78V109.3H233.023V109.19L234.733 108.85V110.44L234.813 110.52C234.913 110.293 235.009 110.09 235.103 109.91C235.196 109.73 235.289 109.58 235.383 109.46C235.549 109.247 235.723 109.093 235.903 109C236.089 108.9 236.293 108.85 236.513 108.85C236.666 108.85 236.806 108.88 236.933 108.94C237.066 109 237.173 109.09 237.253 109.21C237.339 109.323 237.383 109.47 237.383 109.65C237.383 109.783 237.346 109.907 237.273 110.02C237.206 110.133 237.109 110.227 236.983 110.3C236.856 110.367 236.703 110.4 236.523 110.4C236.363 110.4 236.219 110.373 236.093 110.32C235.966 110.26 235.866 110.18 235.793 110.08C235.726 109.98 235.693 109.87 235.693 109.75C235.693 109.697 235.696 109.653 235.703 109.62C235.716 109.58 235.726 109.543 235.733 109.51C235.739 109.47 235.743 109.44 235.743 109.42C235.743 109.373 235.726 109.35 235.693 109.35C235.626 109.35 235.546 109.41 235.453 109.53C235.366 109.643 235.266 109.813 235.153 110.04C235.079 110.173 235.006 110.333 234.933 110.52C234.859 110.707 234.793 110.9 234.733 111.1V113.78L235.293 113.9V114H233.083ZM239.94 114.15C239.64 114.15 239.357 114.123 239.09 114.07C238.83 114.017 238.597 113.937 238.39 113.83C238.19 113.723 238.034 113.597 237.92 113.45C237.807 113.303 237.75 113.14 237.75 112.96C237.75 112.827 237.787 112.717 237.86 112.63C237.94 112.537 238.04 112.467 238.16 112.42C238.28 112.373 238.407 112.35 238.54 112.35C238.674 112.35 238.8 112.373 238.92 112.42C239.04 112.46 239.137 112.52 239.21 112.6C239.284 112.68 239.32 112.777 239.32 112.89C239.32 112.983 239.297 113.067 239.25 113.14C239.21 113.213 239.147 113.283 239.06 113.35C238.954 113.423 238.88 113.483 238.84 113.53C238.8 113.577 238.78 113.627 238.78 113.68C238.78 113.733 238.827 113.787 238.92 113.84C239.014 113.893 239.144 113.94 239.31 113.98C239.484 114.013 239.677 114.03 239.89 114.03C240.19 114.03 240.454 113.993 240.68 113.92C240.907 113.84 241.084 113.727 241.21 113.58C241.344 113.433 241.41 113.247 241.41 113.02C241.41 112.847 241.357 112.69 241.25 112.55C241.144 112.41 240.967 112.277 240.72 112.15C240.474 112.023 240.137 111.893 239.71 111.76C239.237 111.6 238.86 111.44 238.58 111.28C238.307 111.12 238.11 110.95 237.99 110.77C237.877 110.59 237.82 110.393 237.82 110.18C237.82 109.773 238.02 109.45 238.42 109.21C238.827 108.97 239.374 108.85 240.06 108.85C240.434 108.85 240.777 108.9 241.09 109C241.404 109.1 241.657 109.24 241.85 109.42C242.044 109.593 242.14 109.8 242.14 110.04C242.14 110.167 242.104 110.273 242.03 110.36C241.957 110.44 241.86 110.5 241.74 110.54C241.627 110.58 241.507 110.6 241.38 110.6C241.28 110.6 241.18 110.59 241.08 110.57C240.987 110.543 240.9 110.51 240.82 110.47C240.747 110.423 240.687 110.367 240.64 110.3C240.594 110.227 240.57 110.143 240.57 110.05C240.57 109.87 240.67 109.713 240.87 109.58C240.977 109.513 241.05 109.457 241.09 109.41C241.13 109.363 241.15 109.32 241.15 109.28C241.15 109.247 241.124 109.21 241.07 109.17C241.017 109.13 240.94 109.097 240.84 109.07C240.747 109.037 240.64 109.013 240.52 109C240.4 108.98 240.27 108.97 240.13 108.97C239.83 108.97 239.564 109.003 239.33 109.07C239.097 109.137 238.914 109.237 238.78 109.37C238.647 109.497 238.58 109.653 238.58 109.84C238.58 110.007 238.644 110.167 238.77 110.32C238.897 110.467 239.084 110.603 239.33 110.73C239.577 110.85 239.88 110.97 240.24 111.09C240.74 111.263 241.134 111.427 241.42 111.58C241.714 111.733 241.924 111.893 242.05 112.06C242.177 112.22 242.24 112.407 242.24 112.62C242.24 112.867 242.18 113.087 242.06 113.28C241.94 113.473 241.777 113.633 241.57 113.76C241.364 113.887 241.12 113.983 240.84 114.05C240.567 114.117 240.267 114.15 239.94 114.15ZM240.3 116.15C240.06 116.15 239.85 116.093 239.67 115.98C239.497 115.873 239.374 115.713 239.3 115.5L239.4 115.4C239.467 115.553 239.564 115.67 239.69 115.75C239.817 115.83 239.96 115.87 240.12 115.87C240.247 115.87 240.357 115.84 240.45 115.78C240.544 115.727 240.614 115.65 240.66 115.55C240.714 115.457 240.74 115.35 240.74 115.23C240.74 115.13 240.72 115.033 240.68 114.94C240.64 114.853 240.58 114.773 240.5 114.7C240.427 114.627 240.33 114.567 240.21 114.52C240.09 114.48 239.954 114.46 239.8 114.46L239.98 114H240.11L240.03 114.24L240.11 114.35C240.35 114.37 240.55 114.423 240.71 114.51C240.87 114.603 240.99 114.713 241.07 114.84C241.15 114.973 241.19 115.12 241.19 115.28C241.19 115.433 241.154 115.577 241.08 115.71C241.007 115.843 240.904 115.95 240.77 116.03C240.637 116.11 240.48 116.15 240.3 116.15ZM245.832 108.85C246.218 108.85 246.548 108.897 246.822 108.99C247.102 109.077 247.332 109.213 247.512 109.4C247.692 109.587 247.822 109.823 247.902 110.11C247.982 110.39 248.022 110.723 248.022 111.11V113.65C248.022 113.75 248.042 113.823 248.082 113.87C248.128 113.917 248.188 113.94 248.262 113.94C248.342 113.94 248.432 113.917 248.532 113.87C248.638 113.823 248.742 113.763 248.842 113.69V113.8C248.762 113.873 248.665 113.937 248.552 113.99C248.445 114.043 248.332 114.083 248.212 114.11C248.092 114.137 247.975 114.15 247.862 114.15C247.568 114.15 247.338 114.073 247.172 113.92C247.005 113.76 246.922 113.503 246.922 113.15C246.922 113.017 246.922 112.92 246.922 112.86C246.922 112.793 246.922 112.743 246.922 112.71C246.922 112.677 246.922 112.64 246.922 112.6L246.842 112.54C246.715 112.793 246.562 113.02 246.382 113.22C246.208 113.42 246.012 113.59 245.792 113.73C245.578 113.863 245.358 113.967 245.132 114.04C244.905 114.113 244.678 114.15 244.452 114.15C244.205 114.15 243.982 114.107 243.782 114.02C243.582 113.94 243.422 113.82 243.302 113.66C243.182 113.493 243.122 113.29 243.122 113.05C243.122 112.483 243.445 112.053 244.092 111.76C244.738 111.46 245.682 111.31 246.922 111.31C246.922 110.743 246.878 110.297 246.792 109.97C246.705 109.637 246.555 109.397 246.342 109.25C246.128 109.103 245.835 109.03 245.462 109.03C245.215 109.03 244.995 109.053 244.802 109.1C244.615 109.14 244.468 109.19 244.362 109.25C244.262 109.31 244.212 109.363 244.212 109.41C244.212 109.443 244.242 109.48 244.302 109.52C244.368 109.553 244.485 109.603 244.652 109.67C244.958 109.79 245.112 109.96 245.112 110.18C245.112 110.38 245.025 110.533 244.852 110.64C244.678 110.74 244.468 110.79 244.222 110.79C243.982 110.79 243.775 110.737 243.602 110.63C243.435 110.523 243.352 110.37 243.352 110.17C243.352 110.01 243.418 109.853 243.552 109.7C243.692 109.54 243.875 109.397 244.102 109.27C244.335 109.143 244.598 109.043 244.892 108.97C245.192 108.89 245.505 108.85 245.832 108.85ZM246.922 111.43C246.288 111.43 245.765 111.5 245.352 111.64C244.938 111.773 244.632 111.957 244.432 112.19C244.232 112.423 244.132 112.683 244.132 112.97C244.132 113.143 244.165 113.287 244.232 113.4C244.305 113.507 244.402 113.587 244.522 113.64C244.642 113.693 244.778 113.72 244.932 113.72C245.098 113.72 245.275 113.69 245.462 113.63C245.655 113.563 245.845 113.463 246.032 113.33C246.218 113.197 246.388 113.03 246.542 112.83C246.702 112.623 246.828 112.38 246.922 112.1V111.43ZM249.489 114V113.9L250.039 113.78V109.37H249.429V109.26L251.139 108.92V110.49L251.219 110.56C251.372 110.233 251.556 109.94 251.769 109.68C251.982 109.42 252.219 109.217 252.479 109.07C252.746 108.923 253.029 108.85 253.329 108.85C253.569 108.85 253.779 108.887 253.959 108.96C254.139 109.033 254.289 109.143 254.409 109.29C254.529 109.43 254.616 109.607 254.669 109.82C254.729 110.033 254.759 110.28 254.759 110.56V113.78L255.329 113.9V114H253.089V113.9L253.659 113.78V110.46C253.659 110.06 253.589 109.76 253.449 109.56C253.316 109.36 253.112 109.26 252.839 109.26C252.679 109.26 252.516 109.317 252.349 109.43C252.189 109.537 252.032 109.68 251.879 109.86C251.726 110.04 251.586 110.233 251.459 110.44C251.339 110.647 251.232 110.847 251.139 111.04V113.78L251.709 113.9V114H249.489ZM256.709 114V113.9L257.279 113.78V110.46C257.279 110.06 257.209 109.76 257.069 109.56C256.929 109.36 256.726 109.26 256.459 109.26C256.292 109.26 256.126 109.317 255.959 109.43C255.799 109.537 255.642 109.68 255.489 109.86C255.342 110.04 255.206 110.233 255.079 110.44C254.952 110.647 254.846 110.847 254.759 111.04V110.49L254.839 110.56C254.992 110.233 255.172 109.94 255.379 109.68C255.592 109.42 255.832 109.217 256.099 109.07C256.366 108.923 256.646 108.85 256.939 108.85C257.206 108.85 257.429 108.893 257.609 108.98C257.796 109.06 257.942 109.177 258.049 109.33C258.162 109.483 258.246 109.667 258.299 109.88C258.352 110.093 258.379 110.337 258.379 110.61V113.78L258.989 113.9V114H256.709ZM260.264 114.15V107H259.654V106.89L261.364 106.55V110.42L261.444 110.5C261.537 110.28 261.644 110.073 261.764 109.88C261.89 109.68 262.037 109.503 262.204 109.35C262.37 109.197 262.554 109.077 262.754 108.99C262.96 108.897 263.184 108.85 263.424 108.85C263.737 108.85 264.01 108.913 264.244 109.04C264.484 109.167 264.68 109.343 264.834 109.57C264.994 109.797 265.11 110.063 265.184 110.37C265.264 110.67 265.304 111 265.304 111.36C265.304 111.84 265.24 112.257 265.114 112.61C264.987 112.957 264.807 113.247 264.574 113.48C264.347 113.707 264.08 113.877 263.774 113.99C263.474 114.097 263.147 114.15 262.794 114.15C262.574 114.15 262.364 114.123 262.164 114.07C261.97 114.017 261.79 113.943 261.624 113.85C261.464 113.757 261.314 113.647 261.174 113.52C261.04 113.393 260.924 113.253 260.824 113.1H260.724L260.364 114.15H260.264ZM262.754 114C263.06 114 263.32 113.897 263.534 113.69C263.747 113.477 263.907 113.183 264.014 112.81C264.127 112.437 264.184 112.003 264.184 111.51C264.184 111.023 264.137 110.617 264.044 110.29C263.957 109.963 263.82 109.717 263.634 109.55C263.454 109.383 263.227 109.3 262.954 109.3C262.747 109.3 262.54 109.377 262.334 109.53C262.127 109.677 261.94 109.883 261.774 110.15C261.607 110.417 261.47 110.73 261.364 111.09V112.25C261.364 112.557 261.407 112.823 261.494 113.05C261.587 113.27 261.704 113.45 261.844 113.59C261.984 113.73 262.134 113.833 262.294 113.9C262.46 113.967 262.614 114 262.754 114ZM268.908 108.85C269.294 108.85 269.624 108.897 269.898 108.99C270.178 109.077 270.408 109.213 270.588 109.4C270.768 109.587 270.898 109.823 270.978 110.11C271.058 110.39 271.098 110.723 271.098 111.11V113.65C271.098 113.75 271.118 113.823 271.158 113.87C271.204 113.917 271.264 113.94 271.338 113.94C271.418 113.94 271.508 113.917 271.608 113.87C271.714 113.823 271.818 113.763 271.918 113.69V113.8C271.838 113.873 271.741 113.937 271.628 113.99C271.521 114.043 271.408 114.083 271.288 114.11C271.168 114.137 271.051 114.15 270.938 114.15C270.644 114.15 270.414 114.073 270.248 113.92C270.081 113.76 269.998 113.503 269.998 113.15C269.998 113.017 269.998 112.92 269.998 112.86C269.998 112.793 269.998 112.743 269.998 112.71C269.998 112.677 269.998 112.64 269.998 112.6L269.918 112.54C269.791 112.793 269.638 113.02 269.458 113.22C269.284 113.42 269.088 113.59 268.868 113.73C268.654 113.863 268.434 113.967 268.208 114.04C267.981 114.113 267.754 114.15 267.528 114.15C267.281 114.15 267.058 114.107 266.858 114.02C266.658 113.94 266.498 113.82 266.378 113.66C266.258 113.493 266.198 113.29 266.198 113.05C266.198 112.483 266.521 112.053 267.168 111.76C267.814 111.46 268.758 111.31 269.998 111.31C269.998 110.743 269.954 110.297 269.868 109.97C269.781 109.637 269.631 109.397 269.418 109.25C269.204 109.103 268.911 109.03 268.538 109.03C268.291 109.03 268.071 109.053 267.878 109.1C267.691 109.14 267.544 109.19 267.438 109.25C267.338 109.31 267.288 109.363 267.288 109.41C267.288 109.443 267.318 109.48 267.378 109.52C267.444 109.553 267.561 109.603 267.728 109.67C268.034 109.79 268.188 109.96 268.188 110.18C268.188 110.38 268.101 110.533 267.928 110.64C267.754 110.74 267.544 110.79 267.298 110.79C267.058 110.79 266.851 110.737 266.678 110.63C266.511 110.523 266.428 110.37 266.428 110.17C266.428 110.01 266.494 109.853 266.628 109.7C266.768 109.54 266.951 109.397 267.178 109.27C267.411 109.143 267.674 109.043 267.968 108.97C268.268 108.89 268.581 108.85 268.908 108.85ZM269.998 111.43C269.364 111.43 268.841 111.5 268.428 111.64C268.014 111.773 267.708 111.957 267.508 112.19C267.308 112.423 267.208 112.683 267.208 112.97C267.208 113.143 267.241 113.287 267.308 113.4C267.381 113.507 267.478 113.587 267.598 113.64C267.718 113.693 267.854 113.72 268.008 113.72C268.174 113.72 268.351 113.69 268.538 113.63C268.731 113.563 268.921 113.463 269.108 113.33C269.294 113.197 269.464 113.03 269.618 112.83C269.778 112.623 269.904 112.38 269.998 112.1V111.43Z" fill="black"/>
<path d="M173 87V484" stroke="black"/>
<path d="M395 87V484" stroke="black"/>
<path d="M466 87V484" stroke="black"/>
<path d="M214 87V484" stroke="black"/>
<path d="M279 87V484" stroke="black"/>
<path d="M344 87V484" stroke="black"/>
<path d="M103 156.5H519" stroke="black"/>
<path d="M103 194H519" stroke="black"/>
<path d="M103 230H519" stroke="black"/>
<path d="M102 266H518" stroke="black"/>
<path d="M103 303H519" stroke="black"/>
<path d="M103 336H519" stroke="black"/>
<path d="M103 369H519" stroke="black"/>
<path d="M103 403H519" stroke="black"/>
<path d="M103 438H519" stroke="black"/>
</svg>
